<!--?xml version="1.0" standalone="no"?-->
              <svg id="sw-js-blob-svg" viewBox="0 0 100 100" xmlns="http://www.w3.org/2000/svg" version="1.1">
                    <defs> 
                        <linearGradient id="sw-gradient" x1="0" x2="1" y1="1" y2="0">
                            <stop id="stop1" stop-color="rgba(248, 117, 55, 1)" offset="0%"></stop>
                            <stop id="stop2" stop-color="rgba(251, 168, 31, 1)" offset="100%"></stop>
                        </linearGradient>
                    </defs>
                <path fill="url(#sw-gradient)" d="M27.7,-32.3C34,-27.7,36,-17.2,35.7,-7.9C35.5,1.4,32.9,9.4,29.2,17.9C25.5,26.3,20.8,35.1,13.3,38.7C5.8,42.4,-4.3,41,-11.9,36.6C-19.6,32.2,-24.8,24.7,-30.5,16.7C-36.3,8.6,-42.6,0,-43,-9.2C-43.3,-18.4,-37.6,-28.2,-29.4,-32.4C-21.2,-36.7,-10.6,-35.4,0,-35.5C10.7,-35.5,21.4,-36.9,27.7,-32.3Z" width="100%" height="100%" transform="translate(50 50)" stroke-width="0" style="transition: all 0.3s ease 0s;"></path>
              </svg>